<svg xmlns="http://www.w3.org/2000/svg" viewBox="0 0 1848.6 207.3">
	<defs>
		<style>.cls-1{fill:#fff;}</style>
	</defs>
	<title>Osmoss</title>
	<g>
		<path class="cls-1" d="M159.3,46.35q73.2,0,110,24.9T306,149.85q0,54-36.6,78.9t-110.1,24.9q-73.8,0-110.25-24.9T12.6,149.85q0-53.7,36.6-78.6T159.3,46.35Zm0,155.1a339,339,0,0,0,39.6-1.95q16.2-2,26.25-7.65A33.58,33.58,0,0,0,239.7,176.1q4.5-10,4.5-26.25t-4.5-26.25A32.81,32.81,0,0,0,225.15,108q-10.05-5.55-26.25-7.5a339,339,0,0,0-39.6-2,339,339,0,0,0-39.6,2q-16.2,1.95-26.25,7.5A32.81,32.81,0,0,0,78.9,123.6q-4.5,10.05-4.5,26.25t4.5,26.25a33.58,33.58,0,0,0,14.55,15.75q10,5.7,26.25,7.65A339,339,0,0,0,159.3,201.45Z" transform="translate(-12.6 -46.35)"/>
		<path class="cls-1" d="M523.5,129.75q36.9,0,56.1,13.65t19.2,41.25a75.39,75.39,0,0,1-4.8,27.6A48.86,48.86,0,0,1,578.7,233q-10.5,8.4-26.85,12.9t-39.15,4.5H325.8l39.9-51.6H517.5q11.1,0,16.2-3.45t5.1-11.25q0-7.8-5.1-11.1t-16.2-3.3H408.3q-19.5,0-33.6-4.2t-23.4-11.7a46.1,46.1,0,0,1-13.8-18.15,59.92,59.92,0,0,1-4.5-23.55A64.47,64.47,0,0,1,338,86.4a49.39,49.39,0,0,1,15.3-19.65q10.35-8.1,26.7-12.6t39.15-4.5H593.4l-39.9,52.2H414.3q-10.8,0-16.05,3T393,115.65q0,7.8,5.25,10.95t16.05,3.15Z" transform="translate(-12.6 -46.35)"/>
		<path class="cls-1" d="M765,124.35q6.59,11.7,11.55,20.55t8.7,15.75q3.75,6.9,6.6,12.6l5.55,11.1q2.4-5.4,5.25-10.95t6.6-12.6q3.75-7.05,8.7-15.75t11.55-20.4l32.1-57A46.57,46.57,0,0,1,875.25,52.2q8.25-5.85,20.55-5.85A35.53,35.53,0,0,1,917,53.1Q926.4,59.85,930.6,74l50.7,176.4H919.5l-18.9-69.9q-4.8-17.1-8.1-30t-5.7-25.2q-5.12,10.5-11.4,23.25t-16.5,32.25l-27,50.4A54,54,0,0,1,824,243a35.52,35.52,0,0,1-8.25,6.75,26.26,26.26,0,0,1-9,3.15,73.88,73.88,0,0,1-21,0,26.11,26.11,0,0,1-9-3.15,35.31,35.31,0,0,1-8.25-6.75,53.63,53.63,0,0,1-8-11.85l-27-50.7q-5.4-10.2-9.6-18.3t-7.65-14.55q-3.45-6.45-6-11.85l-5-10.5q-2.4,12-5.7,25.05t-7.8,30.15l-18.9,69.9H612L663.9,74q4.2-14.1,13.8-20.85A36.2,36.2,0,0,1,699,46.35q12,0,20.25,5.7a44.32,44.32,0,0,1,13.65,15.6Z" transform="translate(-12.6 -46.35)"/>
		<path class="cls-1" d="M1132.8,46.35q73.18,0,110,24.9t36.75,78.6q0,54-36.6,78.9t-110.1,24.9q-73.8,0-110.25-24.9t-36.45-78.9q0-53.7,36.6-78.6T1132.8,46.35Zm0,155.1a339,339,0,0,0,39.6-1.95q16.2-2,26.25-7.65a33.58,33.58,0,0,0,14.55-15.75q4.5-10,4.5-26.25t-4.5-26.25a32.81,32.81,0,0,0-14.55-15.6q-10.05-5.55-26.25-7.5a403.07,403.07,0,0,0-79.2,0Q1077,102.45,1067,108a32.81,32.81,0,0,0-14.55,15.6q-4.5,10.05-4.5,26.25t4.5,26.25A33.58,33.58,0,0,0,1067,191.85q10,5.7,26.25,7.65A339,339,0,0,0,1132.8,201.45Z" transform="translate(-12.6 -46.35)"/>
		<path class="cls-1" d="M1497,129.75q36.9,0,56.1,13.65t19.2,41.25a75.6,75.6,0,0,1-4.8,27.6,48.86,48.86,0,0,1-15.3,20.7q-10.52,8.4-26.85,12.9t-39.15,4.5H1299.3l39.9-51.6H1491q11.09,0,16.2-3.45t5.1-11.25q0-7.8-5.1-11.1t-16.2-3.3H1381.8q-19.52,0-33.6-4.2t-23.4-11.7A46.1,46.1,0,0,1,1311,135.6a59.92,59.92,0,0,1-4.5-23.55,64.47,64.47,0,0,1,5-25.65,49.39,49.39,0,0,1,15.3-19.65q10.35-8.1,26.7-12.6t39.15-4.5h174.3l-39.9,52.2H1387.8q-10.8,0-16,3t-5.25,10.8q0,7.8,5.25,10.95t16,3.15Z" transform="translate(-12.6 -46.35)"/>
		<path class="cls-1" d="M1785.9,129.75q36.9,0,56.1,13.65t19.2,41.25a75.6,75.6,0,0,1-4.8,27.6,48.86,48.86,0,0,1-15.3,20.7q-10.51,8.4-26.85,12.9t-39.15,4.5H1588.2l39.9-51.6h151.8q11.08,0,16.2-3.45t5.1-11.25q0-7.8-5.1-11.1t-16.2-3.3H1670.7q-19.52,0-33.6-4.2t-23.4-11.7a46.1,46.1,0,0,1-13.8-18.15,59.92,59.92,0,0,1-4.5-23.55,64.47,64.47,0,0,1,4.95-25.65,49.39,49.39,0,0,1,15.3-19.65q10.35-8.1,26.7-12.6t39.15-4.5h174.3l-39.9,52.2H1676.7q-10.8,0-16,3t-5.25,10.8q0,7.8,5.25,10.95t16,3.15Z" transform="translate(-12.6 -46.35)"/>
	</g>
</svg>
