<svg xmlns="http://www.w3.org/2000/svg" viewBox="0 0 503.54 225.43"><defs><style>.cls-1{fill:#fff;}</style></defs><title>chn</title><g id="图层_2" data-name="图层 2"><g id="图层_1-2" data-name="图层 1"><path class="cls-1" d="M152.93,130.84h13v33.42h66.83V175H166v28.89h57.77v11.32H166.52L166,224.3a66.09,66.09,0,0,1-1.7,12.46,19.33,19.33,0,0,1-2.83,6.79,6.94,6.94,0,0,0-1.7,2.84q0,.56,44.18.56h44.18v1.7a47.86,47.86,0,0,1-.57,5.67l-.57,3.39H52.11l.57-4.53A18.52,18.52,0,0,1,53,249.5a11.86,11.86,0,0,0,.28-2q.55-.57,43.62-.57h43V215.23H82.7V203.91h57.2V175H82.7L81,179a42.69,42.69,0,0,1-4.82,9.07,65.89,65.89,0,0,1-7.64,9.06,95.58,95.58,0,0,1-7.37,6.8,60.23,60.23,0,0,1-7.64,5.38,15.61,15.61,0,0,1-7.93,2.55q-3.69,0-3.69-.57t4-6.23A79.52,79.52,0,0,0,53,192.58q3.1-6.79,5.95-13.88t4.81-13.88q2-6.8,3.4-13.59c.94-4.53,1.42-6.89,1.42-7.08s3.39-.28,10.19-.28h10.2v2.26c0,1.14-.2,4-.57,8.5a79.6,79.6,0,0,1-1.7,7.93v1.7H139.9V130.84ZM78.16,32.29h13V38H207.3V32.29h26.06V70.23q0,38-1.13,43.05c-.76,3.4-1.52,6.43-2.27,9.06a77.09,77.09,0,0,1-4,7.93,55.22,55.22,0,0,1-4.54,5.95,13.5,13.5,0,0,1-5.09,3.68Q214.66,141,210.7,141h-3.4v-15.3H87.23l-2.84,4.53a28.71,28.71,0,0,1-5.94,7.08,15.83,15.83,0,0,1-5.1,3.12,10.22,10.22,0,0,1-4.81,0H66.27V86.09l-.57-53.8Zm71.37,53.24q-57.77,0-58.06.56c-.19.38-.28,5.3-.28,14.73L90.62,115H207.3V85.53ZM149,49.28H91.19V74.2H207.3V49.28Z" transform="translate(-41.91 -32.29)"/><path class="cls-1" d="M327.67,56.92q.27-1.39,32-1.41t32,1.41c.19.95.57,1.42,1.13,1.42s.66,20.77.29,62.3-.67,63.92-.85,67.12-.67,4.82-1.42,4.82-2.08.95-4,2.83a21,21,0,0,1-6.8,5.38,16.51,16.51,0,0,1-7.36,2h-4V192.58H344.38l-1.7,2.26a15.69,15.69,0,0,1-4,4.54q-2.26,1.14-5.1,2.26a12.54,12.54,0,0,1-5.66,1.13h-4V58.34h1.7A1.75,1.75,0,0,0,327.67,56.92Zm30.87,9.35h-9.63v56.07q0,56.08-.57,57.78l-.57,1.13h21v-115Zm108.18,44.18h68.53v10.76h-60v46.45q0,46.44-.56,53.8a95,95,0,0,1-2.83,13.6q-1.14,5.67-1.14,6.23h74.77l-.57,5.66v5.1l-78.16.57H388V241.29h70.8V121.78l-30-.57H398.18v-4.53c-.38-3-.38-4.9,0-5.66Q398.18,110.45,466.72,110.45Zm-29.45,19.82c3.39,0,5.28.1,5.66.29s.57.66.57,1.41c-.38,2.65-.77,4.91-1.14,6.8s-.76,3.78-1.13,5.66a113.37,113.37,0,0,1-4,17.56L435,168.22l1.13,3.4a88.67,88.67,0,0,0,4.53,10.2,71.6,71.6,0,0,0,6.23,11.32,50.74,50.74,0,0,0,5.1,7.37l2.83,3.4L448,213l-6.8,9.06c-.38,0-1-1.22-2-3.68s-2.55-7.45-4.82-15q-4-13-4.53-15.86L428.2,183l-3.4,7.36q-3.39,6.24-6.79,11.33a73.62,73.62,0,0,1-7.37,9.63,34.91,34.91,0,0,1-7.93,8.5c-3,2.26-5.09,3.39-6.23,3.39a4.48,4.48,0,0,0-1.69-.56q11.31-17.55,15.85-26.06a102.65,102.65,0,0,0,7.93-15.86q3.4-7.92,5.95-15.57a89.16,89.16,0,0,0,3.68-19c.37-1.5.76-3.4,1.14-5.66s.65-4.05.85-5.38.28-2.17.28-2.55l.57-2.27Zm-13.6-93.45q8.5,0,8.5.56a58.28,58.28,0,0,1-1.7,6.23q-1.7,5.1-1.13,6.23,0,.57,22.09.57H473V61.17l-17,.57H439.53l4,2.26a40.62,40.62,0,0,1,7.93,5.67q3.94,4.53,6.79,7.93,2.83,4.53,3.4,5.66l1.13,1.13H442.36L439,77.6q-4-7.36-6.23-9.63a19.16,19.16,0,0,0-5.09-4.53c-1.52-.75-2.46-.75-2.84,0s-1.32,2.46-2.83,5.1a31.06,31.06,0,0,1-7.36,9.06c-3.4,3.4-6.43,5.66-9.06,6.79a14.27,14.27,0,0,1-6.8,2.27c-1.89,0-2.93-.09-3.12-.28s1-2.74,3.69-7.65A134.42,134.42,0,0,0,406.68,64q2.82-6.8,6.23-17.55l2.83-9.63Zm71.94,0h9.06c-.38,1.13-.76,2.26-1.13,3.39a25.21,25.21,0,0,1-1.14,2.84q-1.69,6.24-1.13,6.79,0,.57,20.39.57h21V61.17H507.5L512,64a37.24,37.24,0,0,1,9.63,6.8A41.16,41.16,0,0,1,529,79.3l3.4,5.09h-21c-.76,0-1.41-.93-2-2.83a63.07,63.07,0,0,0-2.55-6.79,37.67,37.67,0,0,0-3.39-5.67,18,18,0,0,0-3.69-2.83,7,7,0,0,0-3.11-1.13q-1.14,0-2.83,3.4T486.54,77a45.21,45.21,0,0,1-9.06,7.36,14.27,14.27,0,0,1-6.8,2.27c-1.89,0-2.83-.19-2.83-.57a51.36,51.36,0,0,1,2.83-6.79q3.4-6.22,6.8-13.6a101.79,101.79,0,0,0,6.8-18.12l2.83-10.76Zm24.63,93.45q6,0,6,1.14t-1.7,12.46a71.69,71.69,0,0,1-4,17.56l-2.27,6.79,2.83,7.93q3.4,7.36,6.8,13.6a61.26,61.26,0,0,0,6.23,9.63q3.4,4,3.4,4.81c0,.57-2.18,3.68-6.51,9.35s-6.71,8.4-7.08,8.21-1.8-3.87-4.25-11.05A165.3,165.3,0,0,1,514.3,192c-1.52-5.28-2.37-7.93-2.55-7.93s-1.42,1.9-3.68,5.67a134.31,134.31,0,0,1-7.93,13,46.14,46.14,0,0,1-9.07,11.33,62.91,62.91,0,0,1-7.36,7.36c-1.51,1.52-3,2.08-4.53,1.7l-1.7-.56,4-5.67q3.94-6.23,7.93-12.46,3.94-6.79,7.36-13.59a139.78,139.78,0,0,0,6.23-13c1.5-3.77,3-7.93,4.53-12.46a129.44,129.44,0,0,0,4.25-19.54q2-12.75,2-13.88C514.1,130.84,516.28,130.27,520.24,130.27Z" transform="translate(-41.91 -32.29)"/></g></g></svg>