<svg xmlns="http://www.w3.org/2000/svg" viewBox="0 0 1435.55 205.37"><defs><style>.cls-1{fill:#fff;}</style></defs><title>osmoss</title><g id="图层_2" data-name="图层 2"><g id="图层_1-2" data-name="图层 1"><path class="cls-1" d="M184.42,77.49q31.65,30,31.64,72.51t-31.64,72.51q-31.63,30-76.31,30-44.83,0-76.47-30T0,150q0-42.48,31.64-72.51t76.47-30Q152.78,47.46,184.42,77.49Zm-76.31,24.9q-20.52,0-35,13.92T58.59,150q0,19.77,14.51,33.69t35,13.92A48.55,48.55,0,0,0,143,183.69q14.5-13.91,14.5-33.69T143,116.31A48.55,48.55,0,0,0,108.11,102.39Z" transform="translate(0 -47.31)"/><path class="cls-1" d="M238,150q0-42.48,31.64-72.51t76.46-30l97-.15q7.32,0,7.32,7.33V95.07q0,7.32-7.32,7.32h-97q-20.5,0-35,13.92T296.63,150Zm212.4,0q0,42.48-31.64,72.51t-76.47,30l-97,.15q-7.32,0-7.32-7.33V204.93q0-7.32,7.32-7.32h97q20.51,0,35-13.92T391.85,150Z" transform="translate(0 -47.31)"/><path class="cls-1" d="M593.26,183H538.33q-7.32,0-7.32,7.32v54.93q0,7.33-7.33,7.33H479.74q-7.33,0-7.33-7.33V54.79q0-7.34,7.33-7.33h25.63l87.89,98.88Zm14.65-36.62L695.8,47.46h25.64q7.32,0,7.32,7.33V245.21q0,7.33-7.32,7.33h-44q-7.32,0-7.32-7.33V190.28q0-7.32-7.33-7.32H607.91Z" transform="translate(0 -47.31)"/><path class="cls-1" d="M935.16,77.49q31.64,30,31.64,72.51t-31.64,72.51q-31.65,30-76.32,30-44.82,0-76.47-30T750.73,150q0-42.48,31.64-72.51t76.47-30Q903.51,47.46,935.16,77.49Zm-76.32,24.9q-20.52,0-35,13.92T809.33,150q0,19.77,14.5,33.69t35,13.92a48.55,48.55,0,0,0,34.86-13.92q14.5-13.91,14.5-33.69t-14.5-33.69A48.55,48.55,0,0,0,858.84,102.39Z" transform="translate(0 -47.31)"/><path class="cls-1" d="M988.77,150q0-42.48,31.64-72.51t76.47-30l97-.15q7.32,0,7.32,7.33V95.07q0,7.32-7.32,7.32h-97q-20.52,0-35,13.92T1047.36,150Zm212.4,0q0,42.48-31.64,72.51t-76.46,30l-97,.15q-7.32,0-7.32-7.33V204.93q0-7.32,7.32-7.32h97q20.51,0,35-13.92t14.5-33.69Z" transform="translate(0 -47.31)"/><path class="cls-1" d="M1223.14,150q0-42.48,31.65-72.51t76.46-30l97-.15q7.32,0,7.33,7.33V95.07q0,7.32-7.33,7.32h-97q-20.51,0-35,13.92T1281.74,150Zm212.41,0q0,42.48-31.64,72.51t-76.47,30l-97,.15q-7.34,0-7.33-7.33V204.93q0-7.32,7.33-7.32h97q20.5,0,35-13.92T1377,150Z" transform="translate(0 -47.31)"/></g></g></svg>